<?xml version="1.0" standalone="no"?>
<!DOCTYPE svg PUBLIC "-//W3C//DTD SVG 20010904//EN"
 "http://www.w3.org/TR/2001/REC-SVG-20010904/DTD/svg10.dtd">
<svg version="1.0" xmlns="http://www.w3.org/2000/svg"
 width="1991.000000pt" height="1991.000000pt" viewBox="0 0 1991.000000 1991.000000"
 preserveAspectRatio="xMidYMid meet">
<metadata>
Created by potrace 1.11, written by Peter Selinger 2001-2013
</metadata>
<g transform="translate(0.000000,1991.000000) scale(0.100000,-0.100000)"
fill="#000000" stroke="none">
<path d="M9510 19749 c-2460 -130 -4685 -1100 -6408 -2793 -1868 -1836 -2902
-4338 -2902 -7021 0 -1833 475 -3575 1394 -5105 644 -1075 1497 -2019 2507
-2775 1931 -1446 4305 -2114 6794 -1909 1911 156 3720 862 5221 2035 1698
1328 2914 3199 3433 5284 271 1091 360 2203 266 3340 -196 2354 -1216 4535
-2886 6170 -1723 1686 -3939 2646 -6409 2775 -219 11 -790 11 -1010 -1z m955
-289 c1778 -88 3430 -634 4890 -1618 1574 -1060 2796 -2567 3510 -4327 903
-2227 927 -4753 65 -6995 -250 -652 -581 -1293 -961 -1862 -264 -395 -556
-773 -858 -1108 -134 -149 -492 -509 -646 -650 -1056 -966 -2318 -1684 -3685
-2096 -1744 -526 -3642 -538 -5395 -34 -559 161 -1072 361 -1605 626 -771 384
-1450 843 -2105 1422 -168 149 -618 599 -767 767 -576 651 -1035 1329 -1417
2095 -245 492 -432 958 -587 1470 -652 2145 -530 4456 343 6515 1158 2729
3552 4784 6418 5510 910 230 1887 330 2800 285z"/>
<path d="M14085 15184 c-486 -56 -863 -227 -1264 -576 -233 -202 -515 -591
-688 -949 -154 -318 -298 -809 -363 -1234 -5 -33 -13 -85 -19 -115 -32 -180
-54 -302 -62 -352 -15 -96 -27 -170 -38 -228 -23 -123 -87 -500 -101 -585 -5
-33 -19 -112 -30 -175 -27 -146 -38 -210 -50 -285 -5 -33 -14 -87 -20 -120 -6
-33 -15 -85 -20 -115 -9 -54 -12 -74 -44 -250 -9 -47 -16 -97 -16 -112 0 -15
-4 -29 -9 -32 -10 -7 -79 2 -256 34 -66 12 -147 26 -180 31 -90 14 -164 27
-225 38 -113 21 -416 73 -535 92 -38 6 -90 15 -115 20 -51 10 -181 33 -315 55
-110 18 -177 29 -275 48 -41 8 -120 22 -175 31 -55 8 -113 18 -130 21 -16 3
-52 9 -80 14 -27 5 -89 16 -137 24 -174 31 -264 47 -323 56 -33 5 -85 13 -115
19 -183 33 -302 54 -350 61 -30 5 -109 18 -175 30 -66 12 -147 25 -180 30 -33
5 -85 13 -115 19 -146 26 -301 54 -352 62 -106 17 -172 28 -228 39 -30 6 -85
13 -121 16 l-66 6 -12 -63 c-53 -273 -56 -299 -40 -327 27 -49 57 -59 259 -92
30 -5 107 -18 170 -29 63 -12 160 -28 215 -37 55 -8 119 -19 142 -25 23 -5 56
-9 74 -9 l32 0 -7 -57 c-6 -58 -15 -116 -35 -225 -19 -99 -31 -171 -41 -233
-5 -33 -14 -87 -20 -120 -6 -33 -15 -85 -20 -115 -5 -30 -16 -95 -25 -145 -23
-128 -65 -370 -75 -435 -5 -30 -16 -93 -24 -140 -28 -158 -47 -265 -56 -325
-5 -33 -13 -85 -19 -115 -32 -180 -54 -302 -62 -352 -15 -96 -27 -170 -38
-228 -15 -80 -48 -270 -66 -380 -26 -160 -36 -210 -72 -358 -32 -135 -107
-374 -140 -452 -254 -580 -564 -871 -1053 -987 -117 -28 -457 -25 -603 5 -201
42 -302 91 -425 207 -121 114 -165 187 -249 420 -67 183 -107 261 -144 281
-41 20 -129 17 -195 -7 -39 -15 -77 -41 -124 -86 -81 -76 -121 -135 -161 -238
-24 -63 -29 -91 -29 -162 0 -76 3 -91 31 -144 41 -76 169 -204 273 -273 139
-92 375 -199 561 -255 244 -72 574 -125 895 -142 225 -13 607 -7 740 11 286
38 491 84 700 155 141 49 175 63 325 136 268 129 438 253 669 485 258 259 419
504 549 834 79 201 143 444 176 662 6 35 15 89 21 121 18 102 30 171 40 232 5
33 14 87 20 120 6 33 15 85 20 115 5 30 16 96 25 145 23 128 65 370 75 435 5
30 18 107 29 170 12 63 28 158 36 210 17 104 32 190 45 260 5 25 18 101 30
170 56 336 60 359 71 407 5 23 9 54 9 69 0 26 1 26 48 21 26 -3 99 -15 162
-27 139 -26 206 -37 285 -50 33 -5 87 -14 120 -20 33 -6 85 -15 115 -20 30 -5
96 -16 145 -25 128 -23 370 -65 435 -75 30 -5 94 -16 143 -24 160 -29 261 -47
322 -56 33 -5 85 -13 115 -19 183 -33 302 -54 355 -62 90 -14 164 -27 225 -38
123 -23 500 -87 585 -101 33 -5 112 -19 175 -30 63 -12 156 -28 205 -36 50 -8
117 -19 150 -25 33 -6 84 -15 113 -20 28 -5 76 -13 105 -18 28 -5 108 -19 177
-31 69 -11 148 -25 175 -30 28 -5 82 -14 120 -20 39 -7 89 -16 112 -21 23 -5
62 -9 87 -9 59 0 81 21 95 92 20 94 51 273 51 289 0 44 -37 56 -315 99 -33 5
-112 19 -175 30 -63 12 -155 28 -205 36 -115 19 -197 33 -263 47 -50 10 -53
12 -48 36 8 36 35 194 46 266 5 33 13 85 19 115 33 183 54 302 61 350 5 30 18
108 29 173 52 292 84 481 102 592 6 39 15 90 20 115 10 51 33 181 55 315 8 50
19 117 25 150 6 33 15 84 20 113 5 28 13 76 18 105 5 28 19 108 31 177 11 69
25 148 30 175 5 28 19 104 30 170 188 1034 337 1540 549 1853 80 119 216 249
307 295 117 59 172 71 319 70 332 -1 464 -107 644 -518 83 -187 121 -252 193
-325 63 -64 99 -80 178 -80 78 0 139 27 199 89 87 90 137 227 129 355 -13 188
-177 389 -434 532 -27 15 -56 31 -64 36 -103 57 -354 148 -529 193 -356 90
-618 113 -916 79z"/>
<path d="M7725 14309 c-135 -17 -231 -30 -285 -40 -30 -6 -80 -15 -110 -20
-297 -55 -678 -193 -894 -323 -32 -20 -60 -36 -63 -36 -10 0 -136 -90 -218
-156 -378 -304 -600 -720 -640 -1194 -13 -154 28 -384 94 -525 66 -143 189
-291 323 -390 236 -175 612 -249 892 -176 282 74 505 284 570 537 33 129 39
223 22 313 -39 210 -163 343 -333 358 -59 5 -66 4 -175 -50 -199 -98 -232
-109 -341 -115 -83 -4 -107 -1 -165 18 -95 32 -134 67 -179 158 l-38 76 0 146
c0 124 4 156 23 220 45 142 90 215 208 334 172 173 360 280 669 381 455 150
908 177 1125 67 43 -22 62 -39 87 -81 18 -30 35 -75 39 -100 7 -44 -5 -177
-26 -291 -6 -30 -14 -82 -20 -115 -5 -33 -14 -87 -20 -120 -6 -33 -15 -85 -20
-115 -5 -30 -16 -95 -25 -145 -23 -128 -65 -370 -75 -435 -5 -30 -16 -94 -24
-142 -29 -161 -47 -262 -56 -323 -5 -33 -13 -85 -19 -115 -32 -180 -54 -302
-62 -352 -14 -92 -27 -169 -38 -228 -35 -195 -41 -232 -36 -239 2 -5 28 -11
57 -15 29 -3 76 -10 103 -16 75 -14 163 -29 230 -40 33 -5 87 -14 120 -20 33
-6 85 -15 115 -20 30 -5 93 -16 140 -24 158 -28 265 -47 325 -56 33 -5 85 -13
115 -19 191 -34 293 -52 350 -61 36 -6 72 -13 81 -16 12 -3 18 5 22 33 3 21
11 65 17 98 6 33 15 85 20 115 5 30 14 81 20 113 18 102 30 171 40 232 5 33
14 87 20 120 6 33 15 85 20 115 5 30 16 96 25 145 23 128 65 370 75 435 5 30
16 94 24 143 29 160 47 261 56 322 5 33 13 85 19 115 31 173 52 296 66 380 8
52 21 122 28 155 6 33 12 123 12 200 l0 140 -39 78 c-27 55 -59 98 -110 148
-229 230 -589 349 -1268 419 -115 12 -773 11 -873 -1z"/>
<path d="M11225 9138 c-26 -23 -38 -76 -75 -313 -5 -33 -13 -85 -19 -115 -32
-176 -54 -302 -62 -350 -16 -105 -28 -175 -38 -230 -22 -120 -88 -502 -101
-585 -5 -33 -19 -112 -30 -175 -27 -146 -38 -210 -50 -285 -5 -33 -14 -87 -20
-120 -6 -33 -15 -85 -20 -115 -5 -30 -16 -93 -24 -140 -22 -120 -22 -478 0
-564 27 -106 101 -240 176 -321 176 -188 419 -295 798 -351 109 -15 404 -18
494 -5 34 6 97 15 141 22 44 6 127 22 185 36 201 47 553 173 574 205 6 10 2
44 -11 99 l-20 84 -34 -1 c-19 0 -81 -13 -139 -28 -117 -31 -277 -38 -360 -16
-137 36 -203 159 -179 337 11 85 37 248 58 363 31 172 46 255 77 440 34 201
65 380 85 490 5 30 13 82 19 115 5 33 14 87 20 120 6 33 15 85 20 115 5 30 13
80 19 110 5 30 17 98 26 150 8 52 20 122 26 155 10 58 16 90 39 220 5 33 19
110 30 170 23 128 25 194 7 220 -9 11 -34 21 -68 26 -30 4 -79 12 -109 18
-200 36 -394 70 -465 81 -33 5 -85 13 -115 19 -180 32 -302 54 -352 62 -32 5
-84 13 -115 19 -57 9 -78 13 -253 44 -108 20 -104 20 -135 -6z"/>
</g>
</svg>
